<?xml version="1.0" encoding="UTF-8"?>
<svg id="Camada_1" data-name="Camada 1" xmlns="http://www.w3.org/2000/svg" viewBox="0 0 1027 769.49">
  <defs>
    <style>
      .cls-1, .cls-2, .cls-3, .cls-4 {
        stroke-miterlimit: 10;
      }

      .cls-1, .cls-3 {
        fill: #f8eede;
        stroke: #000;
      }

      .cls-2 {
        stroke: #006c5e;
      }

      .cls-2, .cls-4 {
        fill: none;
        stroke-width: 5px;
      }

      .cls-5 {
        fill: #03335c;
      }

      .cls-6 {
        fill: #f9b411;
      }

      .cls-7 {
        fill: #0b4e7c;
      }

      .cls-3 {
        opacity: .15;
      }

      .cls-8 {
        fill: #1927a2;
      }

      .cls-9 {
        fill: #ff5438;
      }

      .cls-10 {
        fill: #006c5e;
      }

      .cls-11 {
        fill: #f7b310;
      }

      .cls-12 {
        fill: #1924a0;
      }

      .cls-4 {
        stroke: #ff9700;
      }
    </style>
  </defs>
  <rect class="cls-1" x=".89" y=".5" width="1023.61" height="768.49"/>
  <rect class="cls-11" x="105.85" y="672.82" width="102.3" height="92.68"/>
  <path class="cls-10" d="M.89,430.34h206.35s0-186.96,0-186.96C138.46,305.7,69.68,368.02.89,430.34Z"/>
  <ellipse class="cls-12" cx="53.09" cy="719.17" rx="52.2" ry="47.29"/>
  <path class="cls-10" d="M919.68,577.04c-56.98,0-103.18-41.85-103.18-93.48h103.18v93.48Z"/>
  <path class="cls-11" d="M1022.85,483.56c0,51.63-46.2,93.48-103.18,93.48v-93.48h103.18Z"/>
  <ellipse class="cls-11" cx="53.09" cy="316.63" rx="51.59" ry="46.74"/>
  <path class="cls-11" d="M919.48,764.78c-56.93,0-103.09-41.82-103.09-93.4h206.18c0,51.58-46.16,93.4-103.09,93.4Z"/>
  <path class="cls-4" d="M93.21,602.75c-.04,3.68-.09,7.35-.13,11.03-5.69.55-11.48.33-17.09-.66-1.72-8.2-2.25-18.73,6.15-22.66,10.73-5.02,25.09-5.74,34.3,1.21,10.08,7.61,10.57,20.89,10.26,32.54-.13,5.09-7.98,6.51-13.79,6.36-17.83-.46-35.67-.91-53.5-1.37-9.27-24.13-8.77-46.19,4.02-54.73,3.98-2.66,8.45-3.53,17.02-5.21,5.22-1.02,20.78-3.6,39.99.74,9.96,2.25,14.94,3.38,19.31,6.76,12.91,9.98,10.97,27.88,9.55,41.39-.59,5.59-1.38,11.6-5.64,15.8-5.59,5.51-15.07,6.01-23.49,6.1-26.06.3-52.12.59-78.18.89-4.37.05-8.17-2.99-9.86-6.52-1.7-3.53-1.74-7.47-1.76-11.3-.04-9.11-.08-18.22-.11-27.33-.05-12.74.68-27.11,11.52-35.61,7.86-6.17,19.1-7.55,29.64-8.21,26.43-1.64,53.09-.46,79.19,3.52,5.06.77,10.24,1.69,14.57,4.11,10.23,5.7,12.72,17.65,13.76,28.22,1.99,20.05,7.26,32.56,1.52,46.99-2.9,7.29-7.02,12.62-8.11,14-2.5,3.15-7.48,9.43-15.32,13.51-9.1,4.73-18.26,4.52-24.68,4.47-36.58-.29-56.93,4.26-88.49.17-4.18-.54-11.47-1.61-18.72-6.12-6.75-4.2-10.24-9.46-11.91-12.02-5.22-8.01-6.25-15.48-6.81-19.99-3.03-24.43-5.07-40.97,0-64.77,3.58-16.82,7.37-21.53,11.06-24.57,7.98-6.57,18.12-7.46,28.08-8.13,60.05-4.05,80.36,2.11,106.36-.8,1.23-.14,11.28-1.28,23.82.8,11.25,1.86,15.58,4.84,17.02,5.9,4.54,3.37,6.99,7.67,9.36,14.37,5.72,16.22,5.11,29.55,5.11,29.55-.82,17.65-.49,47.71,0,87.5"/>
  <path class="cls-2" d="M908.68,77.54c-.04,3.76-.09,7.52-.13,11.27-5.78.57-11.66.34-17.35-.68-1.75-8.38-2.29-19.14,6.24-23.16,10.9-5.13,25.48-5.87,34.84,1.24,10.24,7.78,10.73,21.36,10.42,33.26-.13,5.2-8.11,6.65-14.01,6.5-18.11-.47-36.23-.93-54.34-1.4-9.42-24.67-8.9-47.22,4.09-55.96,4.05-2.72,8.58-3.61,17.28-5.33,5.3-1.04,21.1-3.68,40.62.76,10.11,2.3,15.17,3.45,19.61,6.91,13.11,10.2,11.14,28.5,9.7,42.32-.6,5.72-1.4,11.86-5.73,16.15-5.68,5.64-15.3,6.14-23.86,6.24-26.46.3-52.93.6-79.39.91-4.44.05-8.29-3.06-10.02-6.67-1.72-3.61-1.77-7.64-1.78-11.55-.04-9.31-.08-18.63-.11-27.94-.05-13.02.69-27.72,11.7-36.41,7.98-6.31,19.4-7.72,30.1-8.39,26.84-1.68,53.92-.47,80.43,3.59,5.14.79,10.4,1.73,14.79,4.2,10.39,5.83,12.91,18.04,13.98,28.85,2.02,20.5,7.37,33.28,1.54,48.05-2.94,7.45-7.13,12.9-8.24,14.31-2.54,3.23-7.59,9.65-15.55,13.81-9.25,4.84-18.55,4.62-25.06,4.57-37.15-.3-57.81,4.36-89.87.17-4.25-.55-11.65-1.65-19.01-6.26-6.86-4.29-10.4-9.67-12.1-12.29-5.3-8.19-6.35-15.82-6.91-20.44-3.07-24.98-5.15-41.88,0-66.22,3.64-17.19,7.48-22.01,11.23-25.12,8.11-6.72,18.4-7.63,28.52-8.32,60.99-4.14,81.62,2.16,108.02-.82,1.25-.14,11.45-1.31,24.2.82,11.42,1.91,15.83,4.94,17.28,6.03,4.61,3.44,7.1,7.84,9.51,14.69,5.81,16.58,5.18,30.21,5.18,30.21-.83,18.05-.5,48.78,0,89.46"/>
  <path class="cls-7" d="M858.08,329.29l.83-9.38,3.1-35.12s-1.47-17.04,4.42-24.3c5.89-7.27,6.87-8.6,13.25-9.49,6.38-.89,23.56,0,23.56,0v-95.16l13.25-12.01,3.44,185.46h-16.2l-.98-65.4-17.67.44s-2.94,0-5.4,2.22c-2.45,2.22-4.42,4-5.4,7.11-.98,3.11-.49,64.92-.49,64.92l-15.7-9.3Z"/>
  <ellipse class="cls-5" cx="969.11" cy="621.19" rx="55.39" ry="50.19"/>
  <path class="cls-6" d="M207.25,187.62c-31.09-9.21-62.18-18.42-93.27-27.63-11.39-.4-24.82.02-39.64,2.24-32.62,4.89-57.55,16.36-73.44,25.39V.65c68.78,62.32,137.57,124.64,206.35,186.96Z"/>
  <path class="cls-9" d="M920.5,484.23h-104.82v-94.97c34.94,31.66,69.88,63.32,104.82,94.97Z"/>
  <path class="cls-8" d="M1022.57,293.49h-102.89v-93.23c34.3,31.08,68.6,62.15,102.89,93.23Z"/>
  <path class="cls-10" d="M178.03,29.84c39.41,35.71,39.41,93.6,0,129.31L35.31,29.84c39.41-35.71,103.31-35.71,142.72,0Z"/>
  <path class="cls-11" d="M121.31,255.77c19.54-17.85,51.35-17.98,71.06-.28l-70.76,64.66c-19.71-17.7-19.84-46.53-.31-64.38Z"/>
  <g>
    <path class="cls-10" d="M814.85,621.83c0,24.73,22.13,44.78,49.43,44.78v-89.57c-27.3,0-49.43,20.05-49.43,44.78Z"/>
    <path class="cls-11" d="M913.71,621.83c0,24.73-22.13,44.78-49.43,44.78v-89.57c27.3,0,49.43,20.05,49.43,44.78Z"/>
  </g>
  <path class="cls-11" d="M1022.85,389.93c0,51.63-46.19,93.48-103.18,93.48v-186.96c56.98,0,103.18,41.85,103.18,93.48Z"/>
  <g>
    <path class="cls-7" d="M55.35,430.34c-27.86,0-50.45,20.47-50.45,45.71h100.9c0-25.24-22.59-45.71-50.45-45.71Z"/>
    <path class="cls-9" d="M55.35,521.76c-27.86,0-50.45-20.47-50.45-45.71h100.9c0,25.24-22.59,45.71-50.45,45.71Z"/>
  </g>
  <path class="cls-10" d="M106.75,521.39h100.5s0-91.05,0-91.05c-33.5,30.35-67,60.7-100.5,91.05Z"/>
  <path class="cls-11" d="M207.25,430.34h-100.5s0,91.05,0,91.05c33.5-30.35,67-60.7,100.5-91.05Z"/>
  <rect class="cls-11" x="223.17" y=".5" width="575.56" height="768.49"/>
  <rect class="cls-3" x=".5" y=".65" width="223.84" height="765.81"/>
  <rect class="cls-3" x="798.73" y=".5" width="223.84" height="765.81"/>
</svg>